<?xml version="1.0" encoding="UTF-8" standalone="no"?>
<!-- Created with Inkscape (http://www.inkscape.org/) -->

<svg
   xmlns:dc="http://purl.org/dc/elements/1.1/"
   xmlns:cc="http://creativecommons.org/ns#"
   xmlns:rdf="http://www.w3.org/1999/02/22-rdf-syntax-ns#"
   xmlns:svg="http://www.w3.org/2000/svg"
   xmlns="http://www.w3.org/2000/svg"
   xmlns:sodipodi="http://sodipodi.sourceforge.net/DTD/sodipodi-0.dtd"
   xmlns:inkscape="http://www.inkscape.org/namespaces/inkscape"
   width="200"
   height="50"
   id="svg4578"
   sodipodi:version="0.32"
   inkscape:version="0.48.5 r10040"
   version="1.0"
   sodipodi:docname="opensuse.svg"
   inkscape:output_extension="org.inkscape.output.svg.inkscape"
   inkscape:export-filename="/home/hvogel/Development/Web/openSUSE/osem/img/logos/opensuse.png"
   inkscape:export-xdpi="90"
   inkscape:export-ydpi="90">
  <defs
     id="defs4580" />
  <sodipodi:namedview
     id="base"
     pagecolor="#ffffff"
     bordercolor="#d6d6d6"
     borderopacity="1"
     gridtolerance="10000"
     guidetolerance="10"
     objecttolerance="10"
     inkscape:pageopacity="0.0"
     inkscape:pageshadow="2"
     inkscape:zoom="4"
     inkscape:cx="16.968148"
     inkscape:cy="12.723611"
     inkscape:document-units="px"
     inkscape:current-layer="layer1"
     width="400px"
     height="300px"
     borderlayer="true"
     inkscape:showpageshadow="false"
     inkscape:window-width="1680"
     inkscape:window-height="984"
     inkscape:window-x="0"
     inkscape:window-y="27"
     showgrid="false"
     inkscape:window-maximized="1" />
  <metadata
     id="metadata4583">
    <rdf:RDF>
      <cc:Work
         rdf:about="">
        <dc:format>image/svg+xml</dc:format>
        <dc:type
           rdf:resource="http://purl.org/dc/dcmitype/StillImage" />
        <dc:title></dc:title>
      </cc:Work>
    </rdf:RDF>
  </metadata>
  <g
     inkscape:label="Layer 1"
     inkscape:groupmode="layer"
     id="layer1"
     transform="translate(0,-250)">
    <rect
       style="fill:#ffffff;fill-opacity:1"
       id="rect3647"
       width="210.36427"
       height="66.998367"
       x="-3.7123106"
       y="-7.452426"
       transform="translate(0,250)" />
    <path
       style="font-size:medium;font-style:normal;font-variant:normal;font-weight:normal;font-stretch:normal;text-indent:0;text-align:start;text-decoration:none;line-height:normal;letter-spacing:normal;word-spacing:normal;text-transform:none;direction:ltr;block-progression:tb;writing-mode:lr-tb;text-anchor:start;baseline-shift:baseline;color:#000000;fill:#aaaaaa;fill-opacity:1;stroke:none;stroke-width:4;marker:none;visibility:visible;display:inline;overflow:visible;enable-background:accumulate;font-family:Sans;-inkscape-font-specification:Sans"
       d="m 110.19574,251.51532 c -4.46571,0 -8.0736,3.60787 -8.0736,8.0736 0,1.84078 0.61295,3.53498 1.64639,4.89164 2.24186,-2.59481 5.55067,-4.24259 9.24505,-4.24259 1.80746,0 3.52142,0.40249 5.06579,1.10814 0.12504,-0.56547 0.18997,-1.15358 0.18997,-1.75719 0,-4.46572 -3.60788,-8.0736 -8.0736,-8.0736 z m -10.543165,3.73601 c -2.32562,0 -4.1951,1.88531 -4.1951,4.21093 0,0.75297 0.19426,1.46445 0.53824,2.07381 1.40336,-0.79166 3.02582,-1.25062 4.749165,-1.25062 0.16632,0 0.32651,0.007 0.49075,0.0158 -0.0186,-0.23575 -0.0316,-0.47189 -0.0316,-0.71237 0,-1.29532 0.28133,-2.52776 0.7757,-3.64103 -0.66562,-0.44634 -1.46309,-0.69655 -2.327095,-0.69655 z m 19.914865,2.89699 c -0.17181,0 -0.33742,0.0211 -0.50658,0.0317 0.0732,0.46135 0.12665,0.92719 0.12665,1.40893 0,0.74971 -0.0953,1.47312 -0.26912,2.16879 2.0374,1.12752 3.72937,2.81457 4.84416,4.85999 1.15629,-0.60197 2.44615,-0.98473 3.81517,-1.07648 -0.35283,-4.13773 -3.78075,-7.39289 -8.01028,-7.39289 z m -6.55386,3.00781 c -6.24887,0 -11.30303,5.05374 -11.30303,11.30305 0,6.24862 5.0539,11.30302 11.30303,11.30302 6.24914,0 11.30304,-5.05442 11.30304,-11.30302 0,-6.24929 -5.05416,-11.30305 -11.30304,-11.30305 z m -12.2687,0.0475 c -4.847935,0 -8.770136,3.92219 -8.770136,8.77014 0,2.85388 1.359762,5.38031 3.466901,6.98129 0.88832,-1.71333 2.67248,-2.88117 4.733335,-2.88117 0.24908,0 0.48815,0.0302 0.72821,0.0633 -0.0754,-0.54827 -0.11082,-1.10919 -0.11082,-1.67804 0,-2.71978 0.88532,-5.23486 2.39042,-7.26624 -0.90094,-1.12737 -1.5457,-2.48195 -1.82052,-3.95764 -0.20367,-0.0141 -0.41009,-0.0317 -0.61739,-0.0317 z m 27.48189,5.22408 c -1.47205,0 -2.851,0.37582 -4.06846,1.01317 0.69131,1.5313 1.07648,3.23033 1.07648,5.01829 0,3.34778 -1.346,6.38762 -3.53022,8.596 1.6046,1.78145 3.93269,2.89699 6.5222,2.89699 4.84794,0 8.77014,-3.92219 8.77014,-8.77014 0,-4.84795 -3.9222,-8.75431 -8.77014,-8.75431 z m -37.106878,1.15563 c -4.465847,0 -8.089425,3.59192 -8.089425,8.05777 0,4.46584 3.623578,8.08942 8.089425,8.08942 1.699764,0 3.274333,-0.52958 4.575043,-1.42475 -0.53748,-0.83518 -0.85486,-1.83368 -0.85486,-2.897 0,-0.55189 0.0814,-1.0821 0.23746,-1.58305 -2.435049,-1.75978 -4.020966,-4.62349 -4.020966,-7.85197 0,-0.82029 0.108095,-1.61347 0.300782,-2.37459 -0.07998,-0.002 -0.156903,-0.0158 -0.237459,-0.0158 z m 47.475908,6.93379 c -0.23823,0 -0.46876,0.0271 -0.69654,0.0633 0.0126,0.20137 0.0158,0.39703 0.0158,0.60156 0,2.57497 -1.01599,4.91211 -2.65954,6.64884 0.80857,0.94027 1.99623,1.53558 3.34025,1.53558 2.44814,0 4.43257,-1.9686 4.43257,-4.41673 0,-2.44814 -1.98443,-4.43257 -4.43257,-4.43257 z m -38.42082,0.47492 c -2.448005,0 -4.416725,1.96872 -4.416725,4.41673 0,2.44801 1.96872,4.43257 4.416725,4.43257 1.87643,0 3.46916,-1.17087 4.11595,-2.81785 -1.57821,-1.60738 -2.71244,-3.65799 -3.21361,-5.93647 -0.29327,-0.0606 -0.59094,-0.095 -0.90234,-0.095 z m 48.5524,3.72018 0,8.75432 -4.63837,0 c -3.03209,0 -5.49321,2.47692 -5.49321,5.50905 0,3.03166 2.46112,5.4932 5.49321,5.4932 l 1.34561,0 0.45908,0 c 0.8895,0 1.77773,-0.432 2.4854,-1.09231 0.70768,-0.6603 1.2478,-1.57497 1.26645,-2.59622 0.0318,-1.75285 0,-6.85464 0,-6.85464 l 0,-0.22162 0,-8.99178 -0.91817,0 z m -42.41013,3.95765 0,12.11039 c 0,2.03535 1.66899,3.68853 3.70435,3.68853 l 0,-0.91816 c -1.54009,0 -2.78618,-1.23026 -2.78618,-2.77036 l 0,-11.54049 c -0.31965,-0.17182 -0.61634,-0.37125 -0.91817,-0.5699 z m -9.181735,1.12397 c -1.62626,1.55172 -2.64371,3.7365 -2.64371,6.1581 0,4.69862 3.81854,8.51685 8.516845,8.51685 l 0,-0.91817 c -4.202965,0 -7.598675,-3.3955 -7.598675,-7.59868 0,-2.2607 0.9868,-4.29243 2.54873,-5.68318 -0.29193,-0.13448 -0.56234,-0.29201 -0.82319,-0.47492 z m -10.81229,3.64104 c -3.032095,0 -5.493214,2.46109 -5.493214,5.49321 l 0,5.08162 0.918179,0 0,-5.08162 c 0,-2.5367 2.038374,-4.59087 4.575035,-4.59087 2.537159,0 4.590868,2.05417 4.590868,4.59087 l 0,5.08162 0.918177,0 0,-5.08162 c 0,-3.03212 -2.476534,-5.49321 -5.509045,-5.49321 z m 30.822135,0.0317 c -3.03226,0 -5.49321,2.47678 -5.49321,5.50904 0,3.03227 2.46095,5.50905 5.49321,5.50905 3.03227,0 5.50905,-2.47677 5.50905,-5.50905 0,-3.03226 -2.47678,-5.50904 -5.50905,-5.50904 z m -61.296006,0.0158 c -3.032016,0 -5.509042,2.46121 -5.509042,5.49322 0,3.03201 2.477026,5.49321 5.509042,5.49321 3.03201,0 5.49321,-2.4612 5.49321,-5.49321 0,-3.03201 -2.4612,-5.49322 -5.49321,-5.49322 z m 8.247734,0.4116 0,6.8863 c 0,2.03544 1.653557,3.68854 3.688525,3.68854 1.38698,0 2.61073,-0.76687 3.24527,-1.89968 0.62994,1.1328 1.842717,1.89968 3.229438,1.89968 2.035357,0 3.704354,-1.6531 3.704354,-3.68854 l 0,-6.8863 -0.918171,0 0,6.8863 c 0,1.54001 -1.24609,2.77036 -2.786183,2.77036 -1.540106,0 -2.770351,-1.23035 -2.770351,-2.77036 l 0,-6.8863 -0.918174,0 0,6.8863 c 0,1.5401 -1.245562,2.77036 -2.786183,2.77036 -1.539578,0 -2.77035,-1.23035 -2.77035,-2.77036 l 0,-6.8863 -0.918175,0 z m 60.963562,0 0,5.08162 c 0,3.03166 2.46113,5.49321 5.49322,5.49321 3.03209,0 5.50904,-2.4615 5.50904,-5.49321 l 0,-5.08162 -0.91817,0 0,5.08162 c 0,2.53609 -2.05421,4.57504 -4.59087,4.57504 -2.53666,0 -4.57504,-2.0389 -4.57504,-4.57504 l 0,-5.08162 -0.91818,0 z m -7.91529,0.49077 c 2.53687,0 4.59087,2.05401 4.59087,4.59087 0,2.53687 -2.054,4.59087 -4.59087,4.59087 -2.53686,0 -4.57503,-2.054 -4.57503,-4.59087 0,-2.53686 2.03817,-4.59087 4.57503,-4.59087 z m 26.94365,0 4.63837,0 c 0.004,0.60667 0.0289,4.78546 0,6.37973 -0.013,0.70944 -0.4021,1.42131 -0.96567,1.94716 -0.56357,0.52585 -1.2929,0.83902 -1.86801,0.83902 l -1.80469,0 c -2.53665,0 -4.57503,-2.03889 -4.57503,-4.57504 0,-2.53669 2.03838,-4.59087 4.57503,-4.59087 z m -88.239656,0.0158 c 2.536608,0 4.575038,2.03843 4.575038,4.57504 0,2.53661 -2.03843,4.57504 -4.575038,4.57504 -2.536614,0 -4.590871,-2.03842 -4.590871,-4.57504 0,-2.53661 2.054257,-4.57504 4.590871,-4.57504 z"
       id="circle238"
       inkscape:connector-curvature="0" />
  </g>
</svg>
